<mxfile host="Electron" modified="2024-03-08T14:42:34.029Z" agent="Mozilla/5.0 (Windows NT 10.0; Win64; x64) AppleWebKit/537.36 (KHTML, like Gecko) draw.io/23.1.5 Chrome/120.0.6099.109 Electron/28.1.0 Safari/537.36" etag="qTTcVGRSxAQ41SLOqpWP" version="23.1.5" type="device" pages="6">
  <diagram name="hrms" id="VuZ-a2VB95-ClxHnXwo8">
    <mxGraphModel dx="3290" dy="1407" grid="1" gridSize="10" guides="1" tooltips="1" connect="1" arrows="1" fold="1" page="1" pageScale="1" pageWidth="850" pageHeight="1100" math="0" shadow="0">
      <root>
        <mxCell id="0" />
        <mxCell id="1" parent="0" />
        <mxCell id="S0CbWHosjo_VCKKOATg2-28" value="" style="rounded=0;whiteSpace=wrap;html=1;sketch=1;hachureGap=4;jiggle=2;curveFitting=1;fillColor=#fa6800;fontColor=#000000;strokeColor=#C73500;opacity=40;" vertex="1" parent="1">
          <mxGeometry x="-70" y="250" width="240" height="440" as="geometry" />
        </mxCell>
        <mxCell id="S0CbWHosjo_VCKKOATg2-16" value="" style="rounded=0;whiteSpace=wrap;html=1;sketch=1;hachureGap=4;jiggle=2;curveFitting=1;fillColor=#1ba1e2;fontColor=#ffffff;strokeColor=#006EAF;opacity=40;" vertex="1" parent="1">
          <mxGeometry x="247" y="680" width="340" height="100" as="geometry" />
        </mxCell>
        <mxCell id="S0CbWHosjo_VCKKOATg2-17" value="DB" style="shape=datastore;whiteSpace=wrap;html=1;sketch=1;hachureGap=4;jiggle=2;curveFitting=1;fillColor=#60a917;fontColor=#ffffff;strokeColor=#2D7600;" vertex="1" parent="1">
          <mxGeometry x="510" y="710" width="40" height="50" as="geometry" />
        </mxCell>
        <mxCell id="S0CbWHosjo_VCKKOATg2-14" value="" style="rounded=0;whiteSpace=wrap;html=1;sketch=1;hachureGap=4;jiggle=2;curveFitting=1;fillColor=#1ba1e2;fontColor=#ffffff;strokeColor=#006EAF;opacity=40;" vertex="1" parent="1">
          <mxGeometry x="244" y="550" width="340" height="100" as="geometry" />
        </mxCell>
        <mxCell id="S0CbWHosjo_VCKKOATg2-15" value="DB" style="shape=datastore;whiteSpace=wrap;html=1;sketch=1;hachureGap=4;jiggle=2;curveFitting=1;fillColor=#60a917;fontColor=#ffffff;strokeColor=#2D7600;" vertex="1" parent="1">
          <mxGeometry x="510" y="575" width="40" height="50" as="geometry" />
        </mxCell>
        <mxCell id="S0CbWHosjo_VCKKOATg2-33" style="edgeStyle=orthogonalEdgeStyle;rounded=0;sketch=1;hachureGap=4;jiggle=2;curveFitting=1;orthogonalLoop=1;jettySize=auto;html=1;entryX=1;entryY=0.5;entryDx=0;entryDy=0;startArrow=classic;startFill=1;" edge="1" parent="1" source="S0CbWHosjo_VCKKOATg2-12" target="S0CbWHosjo_VCKKOATg2-28">
          <mxGeometry relative="1" as="geometry" />
        </mxCell>
        <mxCell id="S0CbWHosjo_VCKKOATg2-12" value="" style="rounded=0;whiteSpace=wrap;html=1;sketch=1;hachureGap=4;jiggle=2;curveFitting=1;fillColor=#1ba1e2;fontColor=#ffffff;strokeColor=#006EAF;opacity=40;" vertex="1" parent="1">
          <mxGeometry x="241" y="420" width="340" height="100" as="geometry" />
        </mxCell>
        <mxCell id="S0CbWHosjo_VCKKOATg2-13" value="DB" style="shape=datastore;whiteSpace=wrap;html=1;sketch=1;hachureGap=4;jiggle=2;curveFitting=1;fillColor=#60a917;fontColor=#ffffff;strokeColor=#2D7600;" vertex="1" parent="1">
          <mxGeometry x="510" y="445" width="40" height="50" as="geometry" />
        </mxCell>
        <mxCell id="S0CbWHosjo_VCKKOATg2-10" value="" style="rounded=0;whiteSpace=wrap;html=1;sketch=1;hachureGap=4;jiggle=2;curveFitting=1;fillColor=#1ba1e2;fontColor=#ffffff;strokeColor=#006EAF;opacity=40;" vertex="1" parent="1">
          <mxGeometry x="240" y="290" width="340" height="100" as="geometry" />
        </mxCell>
        <mxCell id="S0CbWHosjo_VCKKOATg2-11" value="DB" style="shape=datastore;whiteSpace=wrap;html=1;sketch=1;hachureGap=4;jiggle=2;curveFitting=1;fillColor=#60a917;fontColor=#ffffff;strokeColor=#2D7600;" vertex="1" parent="1">
          <mxGeometry x="510" y="315" width="40" height="50" as="geometry" />
        </mxCell>
        <mxCell id="S0CbWHosjo_VCKKOATg2-9" value="" style="rounded=0;whiteSpace=wrap;html=1;sketch=1;hachureGap=4;jiggle=2;curveFitting=1;fillColor=#1ba1e2;fontColor=#ffffff;strokeColor=#006EAF;opacity=40;" vertex="1" parent="1">
          <mxGeometry x="240" y="160" width="340" height="100" as="geometry" />
        </mxCell>
        <UserObject label="Auth Service" link="data:page/id,EpCGOoS0tC4Ar62EyGos" id="S0CbWHosjo_VCKKOATg2-1">
          <mxCell style="rounded=0;whiteSpace=wrap;html=1;sketch=1;curveFitting=1;jiggle=2;" vertex="1" parent="1">
            <mxGeometry x="300" y="180" width="180" height="60" as="geometry" />
          </mxCell>
        </UserObject>
        <mxCell id="S0CbWHosjo_VCKKOATg2-23" style="edgeStyle=orthogonalEdgeStyle;rounded=0;sketch=1;hachureGap=4;jiggle=2;curveFitting=1;orthogonalLoop=1;jettySize=auto;html=1;entryX=0;entryY=0.5;entryDx=0;entryDy=0;" edge="1" parent="1" source="S0CbWHosjo_VCKKOATg2-2" target="S0CbWHosjo_VCKKOATg2-11">
          <mxGeometry relative="1" as="geometry" />
        </mxCell>
        <UserObject label="Employee Service" link="data:page/id,b_3Pex8Qf4x9oAII8Ju5" id="S0CbWHosjo_VCKKOATg2-2">
          <mxCell style="rounded=0;whiteSpace=wrap;html=1;sketch=1;curveFitting=1;jiggle=2;" vertex="1" parent="1">
            <mxGeometry x="300" y="310" width="180" height="60" as="geometry" />
          </mxCell>
        </UserObject>
        <mxCell id="S0CbWHosjo_VCKKOATg2-25" style="edgeStyle=orthogonalEdgeStyle;rounded=0;sketch=1;hachureGap=4;jiggle=2;curveFitting=1;orthogonalLoop=1;jettySize=auto;html=1;exitX=1;exitY=0.5;exitDx=0;exitDy=0;entryX=0;entryY=0.5;entryDx=0;entryDy=0;" edge="1" parent="1" source="S0CbWHosjo_VCKKOATg2-3" target="S0CbWHosjo_VCKKOATg2-13">
          <mxGeometry relative="1" as="geometry" />
        </mxCell>
        <UserObject label="Appraisal Service" link="data:page/id,TdHXxkSxIXWXqg5Gpzsp" id="S0CbWHosjo_VCKKOATg2-3">
          <mxCell style="rounded=0;whiteSpace=wrap;html=1;sketch=1;curveFitting=1;jiggle=2;" vertex="1" parent="1">
            <mxGeometry x="300" y="440" width="180" height="60" as="geometry" />
          </mxCell>
        </UserObject>
        <mxCell id="S0CbWHosjo_VCKKOATg2-26" style="edgeStyle=orthogonalEdgeStyle;rounded=0;sketch=1;hachureGap=4;jiggle=2;curveFitting=1;orthogonalLoop=1;jettySize=auto;html=1;exitX=1;exitY=0.5;exitDx=0;exitDy=0;entryX=0;entryY=0.5;entryDx=0;entryDy=0;" edge="1" parent="1" source="S0CbWHosjo_VCKKOATg2-4" target="S0CbWHosjo_VCKKOATg2-15">
          <mxGeometry relative="1" as="geometry" />
        </mxCell>
        <UserObject label="Asset&amp;nbsp; Management" link="data:page/id,1RlW2M2FhqtnaLiEuuyQ" id="S0CbWHosjo_VCKKOATg2-4">
          <mxCell style="rounded=0;whiteSpace=wrap;html=1;sketch=1;curveFitting=1;jiggle=2;" vertex="1" parent="1">
            <mxGeometry x="300" y="570" width="180" height="60" as="geometry" />
          </mxCell>
        </UserObject>
        <UserObject label="EMS" link="data:page/id,zeL5850jn9vWfI0kIvcS" id="S0CbWHosjo_VCKKOATg2-5">
          <mxCell style="rounded=0;whiteSpace=wrap;html=1;sketch=1;curveFitting=1;jiggle=2;" vertex="1" parent="1">
            <mxGeometry x="300" y="700" width="180" height="60" as="geometry" />
          </mxCell>
        </UserObject>
        <mxCell id="S0CbWHosjo_VCKKOATg2-6" value="API Gateway" style="rounded=0;whiteSpace=wrap;html=1;sketch=1;curveFitting=1;jiggle=2;" vertex="1" parent="1">
          <mxGeometry x="-30" y="440" width="180" height="60" as="geometry" />
        </mxCell>
        <mxCell id="S0CbWHosjo_VCKKOATg2-8" value="DB" style="shape=datastore;whiteSpace=wrap;html=1;sketch=1;hachureGap=4;jiggle=2;curveFitting=1;fillColor=#60a917;fontColor=#ffffff;strokeColor=#2D7600;" vertex="1" parent="1">
          <mxGeometry x="510" y="182" width="40" height="50" as="geometry" />
        </mxCell>
        <mxCell id="S0CbWHosjo_VCKKOATg2-19" value="Event Bus" style="shape=cylinder3;whiteSpace=wrap;html=1;boundedLbl=1;backgroundOutline=1;size=15;sketch=1;hachureGap=4;jiggle=2;curveFitting=1;fillColor=#647687;fontColor=#ffffff;strokeColor=#314354;" vertex="1" parent="1">
          <mxGeometry x="720" y="260" width="80" height="390" as="geometry" />
        </mxCell>
        <mxCell id="S0CbWHosjo_VCKKOATg2-22" style="edgeStyle=orthogonalEdgeStyle;rounded=0;sketch=1;hachureGap=4;jiggle=2;curveFitting=1;orthogonalLoop=1;jettySize=auto;html=1;entryX=0.02;entryY=0.56;entryDx=0;entryDy=0;entryPerimeter=0;" edge="1" parent="1" source="S0CbWHosjo_VCKKOATg2-1" target="S0CbWHosjo_VCKKOATg2-8">
          <mxGeometry relative="1" as="geometry" />
        </mxCell>
        <mxCell id="S0CbWHosjo_VCKKOATg2-27" style="edgeStyle=orthogonalEdgeStyle;rounded=0;sketch=1;hachureGap=4;jiggle=2;curveFitting=1;orthogonalLoop=1;jettySize=auto;html=1;entryX=0.05;entryY=0.408;entryDx=0;entryDy=0;entryPerimeter=0;" edge="1" parent="1" source="S0CbWHosjo_VCKKOATg2-5" target="S0CbWHosjo_VCKKOATg2-17">
          <mxGeometry relative="1" as="geometry" />
        </mxCell>
        <mxCell id="S0CbWHosjo_VCKKOATg2-29" style="rounded=0;sketch=1;hachureGap=4;jiggle=2;curveFitting=1;orthogonalLoop=1;jettySize=auto;html=1;exitX=0;exitY=0.5;exitDx=0;exitDy=0;entryX=0.998;entryY=0.202;entryDx=0;entryDy=0;entryPerimeter=0;startArrow=classic;startFill=1;" edge="1" parent="1" source="S0CbWHosjo_VCKKOATg2-9" target="S0CbWHosjo_VCKKOATg2-28">
          <mxGeometry relative="1" as="geometry" />
        </mxCell>
        <mxCell id="S0CbWHosjo_VCKKOATg2-30" style="rounded=0;sketch=1;hachureGap=4;jiggle=2;curveFitting=1;orthogonalLoop=1;jettySize=auto;html=1;exitX=0;exitY=0.5;exitDx=0;exitDy=0;entryX=1.008;entryY=0.768;entryDx=0;entryDy=0;entryPerimeter=0;startArrow=classic;startFill=1;" edge="1" parent="1" source="S0CbWHosjo_VCKKOATg2-16" target="S0CbWHosjo_VCKKOATg2-28">
          <mxGeometry relative="1" as="geometry" />
        </mxCell>
        <mxCell id="S0CbWHosjo_VCKKOATg2-31" style="rounded=0;sketch=1;hachureGap=4;jiggle=2;curveFitting=1;orthogonalLoop=1;jettySize=auto;html=1;entryX=1.012;entryY=0.615;entryDx=0;entryDy=0;entryPerimeter=0;startArrow=classic;startFill=1;" edge="1" parent="1" target="S0CbWHosjo_VCKKOATg2-28">
          <mxGeometry relative="1" as="geometry">
            <mxPoint x="240" y="590" as="sourcePoint" />
          </mxGeometry>
        </mxCell>
        <mxCell id="S0CbWHosjo_VCKKOATg2-32" style="rounded=0;sketch=1;hachureGap=4;jiggle=2;curveFitting=1;orthogonalLoop=1;jettySize=auto;html=1;exitX=0;exitY=0.5;exitDx=0;exitDy=0;entryX=1.008;entryY=0.437;entryDx=0;entryDy=0;entryPerimeter=0;startArrow=classic;startFill=1;" edge="1" parent="1" source="S0CbWHosjo_VCKKOATg2-10" target="S0CbWHosjo_VCKKOATg2-28">
          <mxGeometry relative="1" as="geometry" />
        </mxCell>
        <mxCell id="S0CbWHosjo_VCKKOATg2-34" style="rounded=0;sketch=1;hachureGap=4;jiggle=2;curveFitting=1;orthogonalLoop=1;jettySize=auto;html=1;exitX=1;exitY=0.5;exitDx=0;exitDy=0;entryX=0.035;entryY=0.172;entryDx=0;entryDy=0;entryPerimeter=0;startArrow=classic;startFill=1;" edge="1" parent="1" source="S0CbWHosjo_VCKKOATg2-9" target="S0CbWHosjo_VCKKOATg2-19">
          <mxGeometry relative="1" as="geometry" />
        </mxCell>
        <mxCell id="S0CbWHosjo_VCKKOATg2-35" style="rounded=0;sketch=1;hachureGap=4;jiggle=2;curveFitting=1;orthogonalLoop=1;jettySize=auto;html=1;entryX=0;entryY=0;entryDx=0;entryDy=105;entryPerimeter=0;startArrow=classic;startFill=1;" edge="1" parent="1" source="S0CbWHosjo_VCKKOATg2-10" target="S0CbWHosjo_VCKKOATg2-19">
          <mxGeometry relative="1" as="geometry" />
        </mxCell>
        <mxCell id="S0CbWHosjo_VCKKOATg2-36" style="rounded=0;sketch=1;hachureGap=4;jiggle=2;curveFitting=1;orthogonalLoop=1;jettySize=auto;html=1;exitX=1;exitY=0.5;exitDx=0;exitDy=0;entryX=-0.048;entryY=0.538;entryDx=0;entryDy=0;entryPerimeter=0;startArrow=classic;startFill=1;" edge="1" parent="1" source="S0CbWHosjo_VCKKOATg2-12" target="S0CbWHosjo_VCKKOATg2-19">
          <mxGeometry relative="1" as="geometry" />
        </mxCell>
        <mxCell id="S0CbWHosjo_VCKKOATg2-37" style="rounded=0;sketch=1;hachureGap=4;jiggle=2;curveFitting=1;orthogonalLoop=1;jettySize=auto;html=1;exitX=1;exitY=0.5;exitDx=0;exitDy=0;entryX=-0.058;entryY=0.792;entryDx=0;entryDy=0;entryPerimeter=0;startArrow=classic;startFill=1;" edge="1" parent="1" source="S0CbWHosjo_VCKKOATg2-14" target="S0CbWHosjo_VCKKOATg2-19">
          <mxGeometry relative="1" as="geometry" />
        </mxCell>
        <mxCell id="S0CbWHosjo_VCKKOATg2-38" style="rounded=0;sketch=1;hachureGap=4;jiggle=2;curveFitting=1;orthogonalLoop=1;jettySize=auto;html=1;entryX=-0.006;entryY=0.905;entryDx=0;entryDy=0;entryPerimeter=0;startArrow=classic;startFill=1;exitX=1.005;exitY=0.347;exitDx=0;exitDy=0;exitPerimeter=0;" edge="1" parent="1" source="S0CbWHosjo_VCKKOATg2-16" target="S0CbWHosjo_VCKKOATg2-19">
          <mxGeometry relative="1" as="geometry">
            <mxPoint x="546" y="680" as="sourcePoint" />
          </mxGeometry>
        </mxCell>
        <mxCell id="S0CbWHosjo_VCKKOATg2-44" style="rounded=0;sketch=1;hachureGap=4;jiggle=2;curveFitting=1;orthogonalLoop=1;jettySize=auto;html=1;startArrow=classic;startFill=1;" edge="1" parent="1" source="S0CbWHosjo_VCKKOATg2-40" target="S0CbWHosjo_VCKKOATg2-28">
          <mxGeometry relative="1" as="geometry" />
        </mxCell>
        <mxCell id="S0CbWHosjo_VCKKOATg2-40" value="" style="rounded=0;whiteSpace=wrap;html=1;sketch=1;hachureGap=4;jiggle=2;curveFitting=1;fillColor=#e3c800;fontColor=#000000;strokeColor=#B09500;opacity=40;" vertex="1" parent="1">
          <mxGeometry x="-470" y="250" width="240" height="170" as="geometry" />
        </mxCell>
        <mxCell id="S0CbWHosjo_VCKKOATg2-41" value="" style="rounded=0;whiteSpace=wrap;html=1;sketch=1;hachureGap=4;jiggle=2;curveFitting=1;fillColor=#e3c800;fontColor=#000000;strokeColor=#B09500;opacity=40;" vertex="1" parent="1">
          <mxGeometry x="-470" y="500" width="240" height="170" as="geometry" />
        </mxCell>
        <mxCell id="S0CbWHosjo_VCKKOATg2-42" value="Angular SPA" style="rounded=0;whiteSpace=wrap;html=1;sketch=1;hachureGap=4;jiggle=2;curveFitting=1;" vertex="1" parent="1">
          <mxGeometry x="-410" y="300" width="120" height="60" as="geometry" />
        </mxCell>
        <mxCell id="S0CbWHosjo_VCKKOATg2-43" value="Mobile App" style="rounded=0;whiteSpace=wrap;html=1;sketch=1;hachureGap=4;jiggle=2;curveFitting=1;" vertex="1" parent="1">
          <mxGeometry x="-420" y="555" width="120" height="60" as="geometry" />
        </mxCell>
        <mxCell id="S0CbWHosjo_VCKKOATg2-45" style="rounded=0;sketch=1;hachureGap=4;jiggle=2;curveFitting=1;orthogonalLoop=1;jettySize=auto;html=1;entryX=-0.02;entryY=0.59;entryDx=0;entryDy=0;entryPerimeter=0;startArrow=classic;startFill=1;" edge="1" parent="1" source="S0CbWHosjo_VCKKOATg2-41" target="S0CbWHosjo_VCKKOATg2-28">
          <mxGeometry relative="1" as="geometry" />
        </mxCell>
      </root>
    </mxGraphModel>
  </diagram>
  <diagram id="EpCGOoS0tC4Ar62EyGos" name="auth">
    <mxGraphModel dx="2074" dy="1196" grid="1" gridSize="10" guides="1" tooltips="1" connect="1" arrows="1" fold="1" page="1" pageScale="1" pageWidth="850" pageHeight="1100" math="0" shadow="0">
      <root>
        <mxCell id="0" />
        <mxCell id="1" parent="0" />
        <mxCell id="0h_9Q3E3DMgfPZEUVZeL-1" value="" style="rounded=0;whiteSpace=wrap;html=1;sketch=1;hachureGap=4;jiggle=2;curveFitting=1;fillColor=#1ba1e2;fontColor=#ffffff;strokeColor=#006EAF;opacity=40;" vertex="1" parent="1">
          <mxGeometry x="220" y="200" width="450" height="300" as="geometry" />
        </mxCell>
        <mxCell id="0h_9Q3E3DMgfPZEUVZeL-2" value="Sigin/Signup Module" style="rounded=0;whiteSpace=wrap;html=1;sketch=1;curveFitting=1;jiggle=2;" vertex="1" parent="1">
          <mxGeometry x="330" y="260" width="180" height="60" as="geometry" />
        </mxCell>
        <mxCell id="0h_9Q3E3DMgfPZEUVZeL-3" value="DB" style="shape=datastore;whiteSpace=wrap;html=1;sketch=1;hachureGap=4;jiggle=2;curveFitting=1;fillColor=#60a917;fontColor=#ffffff;strokeColor=#2D7600;" vertex="1" parent="1">
          <mxGeometry x="710" y="280" width="80" height="120" as="geometry" />
        </mxCell>
        <mxCell id="0h_9Q3E3DMgfPZEUVZeL-5" value="&lt;font style=&quot;font-size: 22px;&quot;&gt;Authentication Service&lt;/font&gt;" style="text;html=1;align=center;verticalAlign=middle;whiteSpace=wrap;rounded=0;" vertex="1" parent="1">
          <mxGeometry x="260" y="10" width="290" height="50" as="geometry" />
        </mxCell>
        <mxCell id="0h_9Q3E3DMgfPZEUVZeL-7" value="Roles &amp;amp; Permission Module" style="rounded=0;whiteSpace=wrap;html=1;sketch=1;curveFitting=1;jiggle=2;" vertex="1" parent="1">
          <mxGeometry x="330" y="360" width="180" height="60" as="geometry" />
        </mxCell>
        <mxCell id="0h_9Q3E3DMgfPZEUVZeL-8" style="edgeStyle=orthogonalEdgeStyle;rounded=0;sketch=1;hachureGap=4;jiggle=2;curveFitting=1;orthogonalLoop=1;jettySize=auto;html=1;entryX=1;entryY=0.47;entryDx=0;entryDy=0;entryPerimeter=0;startArrow=classic;startFill=1;" edge="1" parent="1" source="0h_9Q3E3DMgfPZEUVZeL-3" target="0h_9Q3E3DMgfPZEUVZeL-1">
          <mxGeometry relative="1" as="geometry" />
        </mxCell>
        <UserObject label="" link="data:page/id,VuZ-a2VB95-ClxHnXwo8" id="G6klKAoclMa_OUG6-nr4-2">
          <mxCell style="sketch=0;pointerEvents=1;shadow=0;dashed=0;html=1;strokeColor=none;labelPosition=center;verticalLabelPosition=bottom;verticalAlign=top;outlineConnect=0;align=center;shape=mxgraph.office.concepts.home;fillColor=#2072B8;hachureGap=4;jiggle=2;curveFitting=1;" vertex="1" parent="1">
            <mxGeometry x="10" y="10" width="30.6" height="30" as="geometry" />
          </mxCell>
        </UserObject>
      </root>
    </mxGraphModel>
  </diagram>
  <diagram name="employee" id="b_3Pex8Qf4x9oAII8Ju5">
    <mxGraphModel dx="2074" dy="1196" grid="1" gridSize="10" guides="1" tooltips="1" connect="1" arrows="1" fold="1" page="1" pageScale="1" pageWidth="850" pageHeight="1100" math="0" shadow="0">
      <root>
        <mxCell id="SIopQz3ogfMi894PRHyr-0" />
        <mxCell id="SIopQz3ogfMi894PRHyr-1" parent="SIopQz3ogfMi894PRHyr-0" />
        <mxCell id="SIopQz3ogfMi894PRHyr-2" value="" style="rounded=0;whiteSpace=wrap;html=1;sketch=1;hachureGap=4;jiggle=2;curveFitting=1;fillColor=#1ba1e2;fontColor=#ffffff;strokeColor=#006EAF;opacity=40;" vertex="1" parent="SIopQz3ogfMi894PRHyr-1">
          <mxGeometry x="220" y="200" width="450" height="450" as="geometry" />
        </mxCell>
        <mxCell id="SIopQz3ogfMi894PRHyr-3" value="Onboarding Module" style="rounded=0;whiteSpace=wrap;html=1;sketch=1;curveFitting=1;jiggle=2;" vertex="1" parent="SIopQz3ogfMi894PRHyr-1">
          <mxGeometry x="330" y="260" width="180" height="60" as="geometry" />
        </mxCell>
        <mxCell id="SIopQz3ogfMi894PRHyr-4" value="DB" style="shape=datastore;whiteSpace=wrap;html=1;sketch=1;hachureGap=4;jiggle=2;curveFitting=1;fillColor=#60a917;fontColor=#ffffff;strokeColor=#2D7600;" vertex="1" parent="SIopQz3ogfMi894PRHyr-1">
          <mxGeometry x="750" y="350" width="80" height="120" as="geometry" />
        </mxCell>
        <mxCell id="SIopQz3ogfMi894PRHyr-5" value="&lt;font style=&quot;font-size: 22px;&quot;&gt;Employee Service&lt;/font&gt;" style="text;html=1;align=center;verticalAlign=middle;whiteSpace=wrap;rounded=0;" vertex="1" parent="SIopQz3ogfMi894PRHyr-1">
          <mxGeometry x="260" y="10" width="290" height="50" as="geometry" />
        </mxCell>
        <mxCell id="SIopQz3ogfMi894PRHyr-6" value="Document Management Module" style="rounded=0;whiteSpace=wrap;html=1;sketch=1;curveFitting=1;jiggle=2;" vertex="1" parent="SIopQz3ogfMi894PRHyr-1">
          <mxGeometry x="330" y="360" width="180" height="60" as="geometry" />
        </mxCell>
        <mxCell id="SIopQz3ogfMi894PRHyr-7" style="edgeStyle=orthogonalEdgeStyle;rounded=0;sketch=1;hachureGap=4;jiggle=2;curveFitting=1;orthogonalLoop=1;jettySize=auto;html=1;entryX=1;entryY=0.47;entryDx=0;entryDy=0;entryPerimeter=0;startArrow=classic;startFill=1;" edge="1" parent="SIopQz3ogfMi894PRHyr-1" source="SIopQz3ogfMi894PRHyr-4" target="SIopQz3ogfMi894PRHyr-2">
          <mxGeometry relative="1" as="geometry" />
        </mxCell>
        <UserObject label="" link="data:page/id,VuZ-a2VB95-ClxHnXwo8" id="SIopQz3ogfMi894PRHyr-8">
          <mxCell style="sketch=0;pointerEvents=1;shadow=0;dashed=0;html=1;strokeColor=none;labelPosition=center;verticalLabelPosition=bottom;verticalAlign=top;outlineConnect=0;align=center;shape=mxgraph.office.concepts.home;fillColor=#2072B8;hachureGap=4;jiggle=2;curveFitting=1;" vertex="1" parent="SIopQz3ogfMi894PRHyr-1">
            <mxGeometry x="10" y="10" width="30.6" height="30" as="geometry" />
          </mxCell>
        </UserObject>
        <mxCell id="0qKg3UiTf4-18IzqdqlU-0" value="Leave Management Module" style="rounded=0;whiteSpace=wrap;html=1;sketch=1;curveFitting=1;jiggle=2;" vertex="1" parent="SIopQz3ogfMi894PRHyr-1">
          <mxGeometry x="330" y="460" width="180" height="60" as="geometry" />
        </mxCell>
      </root>
    </mxGraphModel>
  </diagram>
  <diagram name="appraisal" id="TdHXxkSxIXWXqg5Gpzsp">
    <mxGraphModel dx="2074" dy="1196" grid="1" gridSize="10" guides="1" tooltips="1" connect="1" arrows="1" fold="1" page="1" pageScale="1" pageWidth="850" pageHeight="1100" math="0" shadow="0">
      <root>
        <mxCell id="-T1yhe4pRI12uzkb_pju-0" />
        <mxCell id="-T1yhe4pRI12uzkb_pju-1" parent="-T1yhe4pRI12uzkb_pju-0" />
        <mxCell id="-T1yhe4pRI12uzkb_pju-2" value="" style="rounded=0;whiteSpace=wrap;html=1;sketch=1;hachureGap=4;jiggle=2;curveFitting=1;fillColor=#1ba1e2;fontColor=#ffffff;strokeColor=#006EAF;opacity=40;" vertex="1" parent="-T1yhe4pRI12uzkb_pju-1">
          <mxGeometry x="220" y="200" width="450" height="300" as="geometry" />
        </mxCell>
        <mxCell id="-T1yhe4pRI12uzkb_pju-3" value="Appraisal Module" style="rounded=0;whiteSpace=wrap;html=1;sketch=1;curveFitting=1;jiggle=2;" vertex="1" parent="-T1yhe4pRI12uzkb_pju-1">
          <mxGeometry x="330" y="260" width="180" height="60" as="geometry" />
        </mxCell>
        <mxCell id="-T1yhe4pRI12uzkb_pju-4" value="DB" style="shape=datastore;whiteSpace=wrap;html=1;sketch=1;hachureGap=4;jiggle=2;curveFitting=1;fillColor=#60a917;fontColor=#ffffff;strokeColor=#2D7600;" vertex="1" parent="-T1yhe4pRI12uzkb_pju-1">
          <mxGeometry x="710" y="280" width="80" height="120" as="geometry" />
        </mxCell>
        <mxCell id="-T1yhe4pRI12uzkb_pju-5" value="&lt;font style=&quot;font-size: 22px;&quot;&gt;Appraisal Service&lt;/font&gt;" style="text;html=1;align=center;verticalAlign=middle;whiteSpace=wrap;rounded=0;" vertex="1" parent="-T1yhe4pRI12uzkb_pju-1">
          <mxGeometry x="260" y="10" width="290" height="50" as="geometry" />
        </mxCell>
        <mxCell id="-T1yhe4pRI12uzkb_pju-6" value="Appraisal Admin Module" style="rounded=0;whiteSpace=wrap;html=1;sketch=1;curveFitting=1;jiggle=2;" vertex="1" parent="-T1yhe4pRI12uzkb_pju-1">
          <mxGeometry x="330" y="360" width="180" height="60" as="geometry" />
        </mxCell>
        <mxCell id="-T1yhe4pRI12uzkb_pju-7" style="edgeStyle=orthogonalEdgeStyle;rounded=0;sketch=1;hachureGap=4;jiggle=2;curveFitting=1;orthogonalLoop=1;jettySize=auto;html=1;entryX=1;entryY=0.47;entryDx=0;entryDy=0;entryPerimeter=0;startArrow=classic;startFill=1;" edge="1" parent="-T1yhe4pRI12uzkb_pju-1" source="-T1yhe4pRI12uzkb_pju-4" target="-T1yhe4pRI12uzkb_pju-2">
          <mxGeometry relative="1" as="geometry" />
        </mxCell>
        <UserObject label="" link="data:page/id,VuZ-a2VB95-ClxHnXwo8" id="-T1yhe4pRI12uzkb_pju-8">
          <mxCell style="sketch=0;pointerEvents=1;shadow=0;dashed=0;html=1;strokeColor=none;labelPosition=center;verticalLabelPosition=bottom;verticalAlign=top;outlineConnect=0;align=center;shape=mxgraph.office.concepts.home;fillColor=#2072B8;hachureGap=4;jiggle=2;curveFitting=1;" vertex="1" parent="-T1yhe4pRI12uzkb_pju-1">
            <mxGeometry x="10" y="10" width="30.6" height="30" as="geometry" />
          </mxCell>
        </UserObject>
      </root>
    </mxGraphModel>
  </diagram>
  <diagram name="assetMgt" id="1RlW2M2FhqtnaLiEuuyQ">
    <mxGraphModel dx="2074" dy="1196" grid="1" gridSize="10" guides="1" tooltips="1" connect="1" arrows="1" fold="1" page="1" pageScale="1" pageWidth="850" pageHeight="1100" math="0" shadow="0">
      <root>
        <mxCell id="cptH6UJZxvCRa4plI9sH-0" />
        <mxCell id="cptH6UJZxvCRa4plI9sH-1" parent="cptH6UJZxvCRa4plI9sH-0" />
        <mxCell id="cptH6UJZxvCRa4plI9sH-2" value="" style="rounded=0;whiteSpace=wrap;html=1;sketch=1;hachureGap=4;jiggle=2;curveFitting=1;fillColor=#1ba1e2;fontColor=#ffffff;strokeColor=#006EAF;opacity=40;" vertex="1" parent="cptH6UJZxvCRa4plI9sH-1">
          <mxGeometry x="220" y="200" width="450" height="300" as="geometry" />
        </mxCell>
        <mxCell id="cptH6UJZxvCRa4plI9sH-3" value="Asset Mgt" style="rounded=0;whiteSpace=wrap;html=1;sketch=1;curveFitting=1;jiggle=2;" vertex="1" parent="cptH6UJZxvCRa4plI9sH-1">
          <mxGeometry x="330" y="260" width="180" height="60" as="geometry" />
        </mxCell>
        <mxCell id="cptH6UJZxvCRa4plI9sH-4" value="DB" style="shape=datastore;whiteSpace=wrap;html=1;sketch=1;hachureGap=4;jiggle=2;curveFitting=1;fillColor=#60a917;fontColor=#ffffff;strokeColor=#2D7600;" vertex="1" parent="cptH6UJZxvCRa4plI9sH-1">
          <mxGeometry x="710" y="280" width="80" height="120" as="geometry" />
        </mxCell>
        <mxCell id="cptH6UJZxvCRa4plI9sH-5" value="&lt;font style=&quot;font-size: 22px;&quot;&gt;Asset Management Service&lt;/font&gt;" style="text;html=1;align=center;verticalAlign=middle;whiteSpace=wrap;rounded=0;" vertex="1" parent="cptH6UJZxvCRa4plI9sH-1">
          <mxGeometry x="260" y="10" width="290" height="50" as="geometry" />
        </mxCell>
        <mxCell id="cptH6UJZxvCRa4plI9sH-6" value="Procurement Module" style="rounded=0;whiteSpace=wrap;html=1;sketch=1;curveFitting=1;jiggle=2;" vertex="1" parent="cptH6UJZxvCRa4plI9sH-1">
          <mxGeometry x="330" y="360" width="180" height="60" as="geometry" />
        </mxCell>
        <mxCell id="cptH6UJZxvCRa4plI9sH-7" style="edgeStyle=orthogonalEdgeStyle;rounded=0;sketch=1;hachureGap=4;jiggle=2;curveFitting=1;orthogonalLoop=1;jettySize=auto;html=1;entryX=1;entryY=0.47;entryDx=0;entryDy=0;entryPerimeter=0;startArrow=classic;startFill=1;" edge="1" parent="cptH6UJZxvCRa4plI9sH-1" source="cptH6UJZxvCRa4plI9sH-4" target="cptH6UJZxvCRa4plI9sH-2">
          <mxGeometry relative="1" as="geometry" />
        </mxCell>
        <UserObject label="" link="data:page/id,VuZ-a2VB95-ClxHnXwo8" id="cptH6UJZxvCRa4plI9sH-8">
          <mxCell style="sketch=0;pointerEvents=1;shadow=0;dashed=0;html=1;strokeColor=none;labelPosition=center;verticalLabelPosition=bottom;verticalAlign=top;outlineConnect=0;align=center;shape=mxgraph.office.concepts.home;fillColor=#2072B8;hachureGap=4;jiggle=2;curveFitting=1;" vertex="1" parent="cptH6UJZxvCRa4plI9sH-1">
            <mxGeometry x="10" y="10" width="30.6" height="30" as="geometry" />
          </mxCell>
        </UserObject>
      </root>
    </mxGraphModel>
  </diagram>
  <diagram name="EMS" id="zeL5850jn9vWfI0kIvcS">
    <mxGraphModel dx="2074" dy="1196" grid="1" gridSize="10" guides="1" tooltips="1" connect="1" arrows="1" fold="1" page="1" pageScale="1" pageWidth="850" pageHeight="1100" math="0" shadow="0">
      <root>
        <mxCell id="1A5Ze0EocqdW2dSshtu1-0" />
        <mxCell id="1A5Ze0EocqdW2dSshtu1-1" parent="1A5Ze0EocqdW2dSshtu1-0" />
        <mxCell id="1A5Ze0EocqdW2dSshtu1-2" value="" style="rounded=0;whiteSpace=wrap;html=1;sketch=1;hachureGap=4;jiggle=2;curveFitting=1;fillColor=#1ba1e2;fontColor=#ffffff;strokeColor=#006EAF;opacity=40;" vertex="1" parent="1A5Ze0EocqdW2dSshtu1-1">
          <mxGeometry x="220" y="200" width="450" height="460" as="geometry" />
        </mxCell>
        <mxCell id="1A5Ze0EocqdW2dSshtu1-3" value="Alert Module" style="rounded=0;whiteSpace=wrap;html=1;sketch=1;curveFitting=1;jiggle=2;" vertex="1" parent="1A5Ze0EocqdW2dSshtu1-1">
          <mxGeometry x="330" y="260" width="180" height="60" as="geometry" />
        </mxCell>
        <mxCell id="1A5Ze0EocqdW2dSshtu1-4" value="DB" style="shape=datastore;whiteSpace=wrap;html=1;sketch=1;hachureGap=4;jiggle=2;curveFitting=1;fillColor=#60a917;fontColor=#ffffff;strokeColor=#2D7600;" vertex="1" parent="1A5Ze0EocqdW2dSshtu1-1">
          <mxGeometry x="710" y="280" width="80" height="120" as="geometry" />
        </mxCell>
        <mxCell id="1A5Ze0EocqdW2dSshtu1-5" value="&lt;font style=&quot;font-size: 22px;&quot;&gt;EMS&lt;/font&gt;" style="text;html=1;align=center;verticalAlign=middle;whiteSpace=wrap;rounded=0;" vertex="1" parent="1A5Ze0EocqdW2dSshtu1-1">
          <mxGeometry x="260" y="10" width="290" height="50" as="geometry" />
        </mxCell>
        <mxCell id="1A5Ze0EocqdW2dSshtu1-6" value="Response Module" style="rounded=0;whiteSpace=wrap;html=1;sketch=1;curveFitting=1;jiggle=2;" vertex="1" parent="1A5Ze0EocqdW2dSshtu1-1">
          <mxGeometry x="330" y="360" width="180" height="60" as="geometry" />
        </mxCell>
        <mxCell id="1A5Ze0EocqdW2dSshtu1-7" style="edgeStyle=orthogonalEdgeStyle;rounded=0;sketch=1;hachureGap=4;jiggle=2;curveFitting=1;orthogonalLoop=1;jettySize=auto;html=1;entryX=1;entryY=0.47;entryDx=0;entryDy=0;entryPerimeter=0;startArrow=classic;startFill=1;" edge="1" parent="1A5Ze0EocqdW2dSshtu1-1" source="1A5Ze0EocqdW2dSshtu1-4" target="1A5Ze0EocqdW2dSshtu1-2">
          <mxGeometry relative="1" as="geometry" />
        </mxCell>
        <UserObject label="" link="data:page/id,VuZ-a2VB95-ClxHnXwo8" id="1A5Ze0EocqdW2dSshtu1-8">
          <mxCell style="sketch=0;pointerEvents=1;shadow=0;dashed=0;html=1;strokeColor=none;labelPosition=center;verticalLabelPosition=bottom;verticalAlign=top;outlineConnect=0;align=center;shape=mxgraph.office.concepts.home;fillColor=#2072B8;hachureGap=4;jiggle=2;curveFitting=1;" vertex="1" parent="1A5Ze0EocqdW2dSshtu1-1">
            <mxGeometry x="10" y="10" width="30.6" height="30" as="geometry" />
          </mxCell>
        </UserObject>
        <mxCell id="WRA8ak3Z9FvtypTadNl0-0" value="Notification Module" style="rounded=0;whiteSpace=wrap;html=1;sketch=1;curveFitting=1;jiggle=2;" vertex="1" parent="1A5Ze0EocqdW2dSshtu1-1">
          <mxGeometry x="330" y="480" width="180" height="60" as="geometry" />
        </mxCell>
      </root>
    </mxGraphModel>
  </diagram>
</mxfile>
